# Blender 3.3.1
# www.blender.org
mtllib house.mtl
o Cube
v -11.858105 -0.007945 0.405551
v -7.221321 -0.007945 0.462350
v -11.858105 2.133861 0.405552
v -7.221321 2.133861 0.462351
v -11.896324 -0.007945 2.679741
v -7.259540 -0.007945 2.736541
v -11.896324 2.133860 2.679742
v -7.259540 2.133861 2.736541
v -8.685887 -0.007945 0.437738
v -8.724107 2.133861 2.711928
v -8.685887 2.133861 0.437738
v -8.724107 -0.007945 2.711928
v -11.824316 -0.007945 -1.605017
v -11.824316 2.133861 -1.605017
v -8.652099 -0.007944 -1.572831
v -8.652100 2.133861 -1.572831
v -11.943197 2.104859 -1.772789
v -11.943197 2.194240 -1.772788
v -9.771852 2.104859 -1.736298
v -8.514866 2.194240 -1.736298
v -12.022545 2.104859 2.948746
v -12.022545 2.194240 2.948746
v -9.851199 2.104859 2.985237
v -9.851199 2.194240 2.985237
v -9.804765 2.104859 0.222192
v -8.547779 2.194240 0.222192
v -11.976110 2.104859 0.185701
v -11.976110 2.194240 0.185701
v -7.110203 2.194240 0.246351
v -7.156637 2.194240 3.009396
v -7.156637 2.104859 3.009396
v -7.110203 2.104859 0.246351
v -11.075860 3.840808 0.387932
v -9.454317 3.840808 0.394058
v -9.460362 3.840808 0.753801
v -9.468152 3.840808 1.217304
v -11.089695 3.840808 1.211178
v -11.081905 3.840808 0.747675
v -8.570977 3.429911 1.602531
v -11.999308 2.104859 1.566040
v -9.827963 2.104859 1.602531
v -11.999308 2.194240 1.566040
v -7.133400 3.429910 1.626690
v -7.133400 2.104859 1.626690
v -9.464257 3.840808 0.985553
v -11.085800 3.840808 0.979426
v -10.310215 2.133860 2.695835
v -10.271996 -0.007945 0.421644
v -10.271996 2.133861 0.421645
v -10.310215 -0.007945 2.695835
v -10.238208 -0.007945 -1.588924
v -10.238208 2.133861 -1.588924
vn -0.9999 -0.0000 -0.0168
vn -0.0000 1.0000 -0.0000
vn -0.0101 -0.0000 0.9999
vn 0.9999 -0.0000 0.0168
vn -0.0000 -1.0000 -0.0000
vn 0.0168 -0.0000 -0.9999
vn -0.0168 -0.0000 0.9999
vn 0.0101 -0.0000 -0.9999
vn 0.0089 -0.1251 -0.9921
vn -0.0115 0.7289 0.6845
vn 0.4139 0.9103 0.0070
vn 0.0709 -0.9975 0.0012
vn -0.0090 -0.0000 1.0000
vn -0.0112 0.7457 0.6662
vn -0.8766 0.4811 -0.0147
vn 0.8766 0.4811 0.0147
vn 0.0065 0.7926 -0.6097
vn 0.0112 0.7451 -0.6668
vn 0.0386 0.7270 0.6855
vn 0.0105 -0.1480 -0.9889
vn -0.0026 0.7321 0.6812
vn 0.6984 0.5391 -0.4708
vn -0.0059 0.7484 0.6633
vn 0.0023 0.7949 -0.6067
vt 0.014981 -0.000567
vt 1.003655 -0.000567
vt 1.003655 1.013739
vt -0.003655 -0.000567
vt 0.999994 0.010745
vt 1.003655 1.006743
vt -0.014313 1.003082
vt -0.003655 1.006743
vt 2.010966 -0.000567
vt 1.617806 1.054529
vt 1.003655 -1.007878
vt -1.010966 -0.000567
vt -0.003655 -1.007878
vt -0.190837 1.054529
vt 2.010966 1.006743
vt 1.003655 2.014054
vt 1.617806 0.047218
vt -0.190837 0.047218
vt -1.010966 1.006743
vt -0.003655 2.014054
vt 0.002001 -0.000567
vt 0.500000 -0.000567
vt -0.019970 1.013739
vt 0.085534 0.052665
vt 0.367890 0.047218
vt 0.500000 2.014054
vt -0.001661 1.003082
vt 0.500000 1.006743
vt -0.001661 -0.000240
vt 0.367890 1.054529
vt 0.500000 -1.007878
vt 0.085534 1.059976
vt 1.003655 -0.000567
vt 1.003655 1.006743
vt -0.030955 0.014080
vt 0.088661 -0.006280
vt 0.990675 -0.000567
vt 0.994337 0.999420
vt 0.009325 1.006743
vt 0.088661 1.001030
vt 0.375000 0.000000
vt 0.375000 1.000000
vt 0.125000 0.750000
vt 2.593489 -0.613246
vt 0.625000 0.000000
vt 0.625000 1.000000
vt 5.618695 0.001466
vt 0.125000 0.500000
vt 0.375000 0.250000
vt 2.987627 0.079822
vt 0.625000 0.250000
vt 1.468499 0.060813
vt 0.375000 0.750000
vt -1.865254 -0.223237
vt -1.005230 -0.565084
vt 0.625000 0.750000
vt 0.375000 0.500000
vt -0.163951 -0.208324
vt 0.625000 0.500000
vt -0.159959 -0.205231
vt -0.162149 -0.207738
vt 0.375000 0.355216
vt 0.230216 0.500000
vt 1.459262 0.051359
vt 0.625000 0.355216
vt 2.958726 0.075732
vt 1.469372 0.053734
vt 0.375000 0.894784
vt 0.230216 0.750000
vt 0.625000 0.894784
vt 0.998425 -0.553919
vt 0.289131 0.046247
vt 0.625000 0.355216
vt 1.267596 0.211340
vt -0.314438 0.206572
vt 0.625000 0.500000
vt 1.567815 -0.215101
vt -0.308305 0.128977
vt 0.375000 0.500000
vt 1.273729 0.146341
vt 0.375000 0.355216
vt 0.230216 0.500000
vt 1.427489 1.222993
vt 4.677824 2.084087
vt 0.971346 1.385374
vt 1.427489 0.145818
vt 2.451882 1.288241
vt 3.410979 2.094169
vt 2.815213 1.278697
vt 2.451467 1.289835
vt 0.974146 0.145818
vt -0.113121 1.349753
vt 0.350314 0.145818
vt -0.161094 -0.204966
vt 0.350314 1.222993
vt -1.219579 1.319834
vt 0.063044 1.379510
vt 0.974146 1.222993
vt 0.586279 1.388222
vt 1.496952 1.249902
vt 0.496887 1.149955
vt 1.492880 1.253699
vt 0.495884 1.150429
vt 0.375000 0.822392
vt 0.302608 0.750000
vt 0.302608 0.500000
vt -0.019954 -0.535216
vt 0.625000 0.822392
vt 1.584718 1.143108
vt 0.308198 1.241847
vt 0.509930 1.017030
vt 0.302608 0.500000
vt 0.482713 0.137659
vt 2.283283 1.278947
vt 0.662230 0.145818
vt -0.110973 1.351621
vt 0.379464 1.379536
vt 0.662230 1.222993
vt 0.799359 0.047218
vt 0.903981 0.052665
vt 0.751828 2.014054
vt 0.491843 1.013739
vt 0.751828 -0.000567
vt 0.499166 0.005253
vt 0.751828 1.006743
vt 0.799359 1.054528
vt 0.751828 -1.007878
vt 0.903981 1.059976
vt 0.486350 0.006756
vt 0.546158 -0.003424
vt 0.506490 1.006743
vt 0.546158 1.003887
s 0
usemtl mur
f 5/9/1 3/6/1 1/2/1
f 3/6/2 47/121/2 49/125/2
f 47/119/3 5/10/3 50/126/3
f 9/22/6 4/8/6 2/4/6
f 10/25/7 6/14/7 8/18/7
f 11/28/2 8/20/2 4/8/2
f 13/33/8 52/132/8 51/130/8
f 11/29/2 52/131/2 49/124/2
f 49/124/2 14/34/2 3/5/2
f 51/130/8 16/40/8 15/36/8
f 49/125/2 10/26/2 11/28/2
f 5/9/1 7/15/1 3/6/1
f 3/6/2 7/16/2 47/121/2
f 47/119/3 7/17/3 5/10/3
f 9/22/6 11/28/6 4/8/6
f 10/25/7 12/30/7 6/14/7
f 11/28/2 10/26/2 8/20/2
f 13/33/8 14/34/8 52/132/8
f 11/29/2 16/39/2 52/131/2
f 49/124/2 52/131/2 14/34/2
f 51/130/8 52/132/8 16/40/8
f 49/125/2 47/121/2 10/26/2
usemtl devant
f 2/4/4 8/19/4 6/12/4
f 2/4/4 4/8/4 8/19/4
usemtl toit
f 24/60/10 37/96/10 22/54/10
f 39/100/11 35/90/11 45/114/11
f 39/101/14 30/77/14 43/109/14
f 35/91/2 33/83/2 38/98/2
f 45/115/2 38/98/2 46/118/2
f 42/107/15 37/97/15 46/117/15
f 26/66/16 34/87/16 35/89/16
f 18/47/17 34/88/17 20/50/17
f 28/71/15 33/85/15 18/44/15
f 28/71/15 46/117/15 38/99/15
f 36/93/2 46/118/2 37/95/2
f 26/67/18 43/110/18 29/72/18
f 39/103/19 36/94/19 24/58/19
f 24/60/21 36/92/21 37/96/21
f 39/100/22 26/64/22 35/90/22
f 39/101/23 24/61/23 30/77/23
f 35/91/2 34/86/2 33/83/2
f 45/115/2 35/91/2 38/98/2
f 42/107/15 22/55/15 37/97/15
f 26/66/16 20/52/16 34/87/16
f 18/47/24 33/84/24 34/88/24
f 28/71/15 38/99/15 33/85/15
f 28/71/15 42/107/15 46/117/15
f 36/93/2 45/115/2 46/118/2
f 26/67/18 39/102/18 43/110/18
f 39/103/11 45/116/11 36/94/11
usemtl toit_devant
f 44/113/4 30/75/4 31/78/4
f 29/74/4 44/113/4 32/80/4
f 44/113/4 43/111/4 30/75/4
f 29/74/4 43/111/4 44/113/4
usemtl fenetre
f 9/21/4 16/38/4 11/27/4
f 3/7/1 13/33/1 1/1/1
f 47/120/3 12/32/3 10/24/3
f 9/21/4 15/37/4 16/38/4
f 3/7/1 14/34/1 13/33/1
f 47/120/3 50/128/3 12/32/3
usemtl dessous
f 50/127/5 1/2/5 48/123/5
f 12/31/5 2/4/5 6/13/5
f 48/122/5 13/33/5 51/129/5
f 18/45/6 19/49/6 17/41/6
f 26/65/9 32/81/9 25/62/9
f 23/57/7 22/56/7 21/53/7
f 27/68/1 18/46/1 17/42/1
f 23/57/5 40/105/5 41/106/5
f 25/63/5 17/43/5 19/48/5
f 40/104/1 28/70/1 27/68/1
f 19/49/12 26/65/12 25/62/12
f 23/57/13 30/76/13 24/59/13
f 25/63/5 44/112/5 41/106/5
f 41/106/5 31/79/5 23/57/5
f 21/53/1 42/108/1 40/104/1
f 41/106/5 27/69/5 25/63/5
f 9/23/5 51/129/5 15/35/5
f 12/31/5 48/123/5 9/22/5
f 50/127/5 5/11/5 1/2/5
f 12/31/5 9/22/5 2/4/5
f 48/122/5 1/3/5 13/33/5
f 18/45/20 20/51/20 19/49/20
f 26/65/6 29/73/6 32/81/6
f 23/57/7 24/59/7 22/56/7
f 27/68/1 28/70/1 18/46/1
f 23/57/5 21/53/5 40/105/5
f 25/63/5 27/69/5 17/43/5
f 40/104/1 42/108/1 28/70/1
f 19/49/12 20/51/12 26/65/12
f 23/57/13 31/79/13 30/76/13
f 25/63/5 32/82/5 44/112/5
f 41/106/5 44/112/5 31/79/5
f 21/53/1 22/56/1 42/108/1
f 41/106/5 40/105/5 27/69/5
f 9/23/5 48/122/5 51/129/5
f 12/31/5 50/127/5 48/123/5
