# Blender 3.3.1
# www.blender.org
mtllib ./assets/models/panel_color.mtl
o panel_color
v 2.365631 0.919750 0.070850
v 2.365631 -0.919750 0.070850
v -2.365631 0.919750 0.070850
v -2.365631 -0.919750 0.070850
v 2.365631 0.919750 -0.070850
v 2.365631 -0.919750 -0.070850
v -2.365631 0.919750 -0.070850
v -2.365631 -0.919750 -0.070850
vn -0.0000 1.0000 -0.0000
vn -1.0000 -0.0000 -0.0000
vn -0.0000 -0.0000 -1.0000
vn -0.0000 -1.0000 -0.0000
vn -0.0000 -0.0000 1.0000
vn 1.0000 -0.0000 -0.0000
vt 1.002272 0.734519
vt 0.625000 0.500000
vt 1.001431 0.326060
vt 0.375000 0.500000
vt 0.625000 0.750000
vt -0.001431 0.749607
vt 0.375000 0.750000
vt -0.002272 0.341148
vt 0.875000 0.500000
vt 0.625000 0.250000
vt 0.125000 0.500000
vt 0.375000 0.250000
vt 0.875000 0.750000
vt 0.625000 1.000000
vt 0.625000 0.000000
vt 0.375000 0.000000
vt 0.375000 1.000000
vt 0.125000 0.750000
s 0
usemtl none
f 5/9/1 3/5/1 1/2/1
f 3/5/2 8/17/2 4/7/2
f 7/15/3 6/12/3 8/16/3
f 2/4/4 8/18/4 6/11/4
f 5/10/6 2/4/6 6/12/6
f 5/9/1 7/13/1 3/5/1
f 3/5/2 7/14/2 8/17/2
f 7/15/3 5/10/3 6/12/3
f 2/4/4 4/7/4 8/18/4
f 5/10/6 1/2/6 2/4/6
usemtl info_color
f 1/1/5 4/8/5 2/3/5
f 1/1/5 3/6/5 4/8/5
