# Blender 3.3.1
# www.blender.org
mtllib ./assets/models/panneau.mtl
o panneau
v 0.000000 -0.105505 -0.051363
v 0.000000 1.905505 -0.051363
v 0.010020 -0.105505 -0.050376
v 0.010020 1.905505 -0.050376
v 0.019656 -0.105505 -0.047453
v 0.019656 1.905505 -0.047453
v 0.028535 -0.105505 -0.042706
v 0.028535 1.905505 -0.042706
v 0.036319 -0.105505 -0.036319
v 0.036319 1.905505 -0.036319
v 0.042706 -0.105505 -0.028535
v 0.042706 1.905505 -0.028535
v 0.047453 -0.105505 -0.019656
v 0.047453 1.905505 -0.019656
v 0.050376 -0.105505 -0.010020
v 0.050376 1.905505 -0.010020
v 0.051363 -0.105505 0.000000
v 0.051363 1.905505 0.000000
v 0.050376 -0.105505 0.010020
v 0.050376 1.905505 0.010020
v 0.047453 -0.105505 0.019656
v 0.047453 1.905505 0.019656
v 0.042706 -0.105505 0.028535
v 0.042706 1.905505 0.028535
v 0.036319 -0.105505 0.036319
v 0.036319 1.905505 0.036319
v 0.028535 -0.105505 0.042706
v 0.028535 1.905505 0.042706
v 0.019656 -0.105505 0.047453
v 0.019656 1.905505 0.047453
v 0.010020 -0.105505 0.050376
v 0.010020 1.905505 0.050376
v 0.000000 -0.105505 0.051363
v 0.000000 1.905505 0.051363
v -0.010020 -0.105505 0.050376
v -0.010020 1.905505 0.050376
v -0.019656 -0.105505 0.047453
v -0.019656 1.905505 0.047453
v -0.028535 -0.105505 0.042706
v -0.028535 1.905505 0.042706
v -0.036319 -0.105505 0.036319
v -0.036319 1.905505 0.036319
v -0.042706 -0.105505 0.028535
v -0.042706 1.905505 0.028535
v -0.047453 -0.105505 0.019656
v -0.047453 1.905505 0.019656
v -0.050376 -0.105505 0.010020
v -0.050376 1.905505 0.010020
v -0.051363 -0.105505 0.000000
v -0.051363 1.905505 0.000000
v -0.050376 -0.105505 -0.010020
v -0.050376 1.905505 -0.010020
v -0.047453 -0.105505 -0.019656
v -0.047453 1.905505 -0.019656
v -0.042706 -0.105505 -0.028535
v -0.042706 1.905505 -0.028535
v -0.036319 -0.105505 -0.036319
v -0.036319 1.905505 -0.036319
v -0.028535 -0.105505 -0.042706
v -0.028535 1.905505 -0.042706
v -0.019656 -0.105505 -0.047453
v -0.019656 1.905505 -0.047453
v -0.010020 -0.105505 -0.050376
v -0.010020 1.905505 -0.050376
v -0.218486 1.662715 0.069059
v -0.218486 1.816759 0.069059
v -0.218486 1.662715 0.028632
v -0.218486 1.816759 0.028632
v 0.475039 1.734690 0.069059
v 0.475039 1.744784 0.069059
v 0.475039 1.734690 0.028632
v 0.475039 1.744784 0.028632
v 0.344860 1.662715 0.028632
v 0.344860 1.816759 0.028632
v 0.344860 1.662715 0.069059
v 0.344860 1.816759 0.069059
v -0.241674 1.177992 0.061171
v -0.241674 1.327711 0.061171
v -0.241674 1.177992 0.027527
v -0.241674 1.327711 0.027527
v 0.474154 1.243607 0.061171
v 0.474154 1.262094 0.061171
v 0.474154 1.243607 0.027527
v 0.474154 1.262094 0.027527
v 0.327261 1.177992 0.027527
v 0.327261 1.327711 0.027527
v 0.327261 1.177992 0.061171
v 0.327261 1.327711 0.061171
v 0.128258 1.577372 0.076530
v 0.128610 1.423330 0.076530
v 0.128258 1.577372 0.036104
v 0.128610 1.423330 0.036104
v -0.565101 1.503810 0.076530
v -0.565078 1.493716 0.076530
v -0.565101 1.503810 0.036104
v -0.565078 1.493716 0.036104
v -0.435087 1.576083 0.036104
v -0.434734 1.422040 0.036104
v -0.435087 1.576083 0.076530
v -0.434734 1.422040 0.076530
vn 0.0980 -0.0000 -0.9952
vn 0.2903 -0.0000 -0.9569
vn 0.4714 -0.0000 -0.8819
vn 0.6344 -0.0000 -0.7730
vn 0.7730 -0.0000 -0.6344
vn 0.8819 -0.0000 -0.4714
vn 0.9569 -0.0000 -0.2903
vn 0.9952 -0.0000 -0.0980
vn 0.9952 -0.0000 0.0980
vn 0.9569 -0.0000 0.2903
vn 0.8819 -0.0000 0.4714
vn 0.7730 -0.0000 0.6344
vn 0.6344 -0.0000 0.7730
vn 0.4714 -0.0000 0.8819
vn 0.2903 -0.0000 0.9569
vn 0.0980 -0.0000 0.9952
vn -0.0980 -0.0000 0.9952
vn -0.2903 -0.0000 0.9569
vn -0.4714 -0.0000 0.8819
vn -0.6344 -0.0000 0.7730
vn -0.7730 -0.0000 0.6344
vn -0.8819 -0.0000 0.4714
vn -0.9569 -0.0000 0.2903
vn -0.9952 -0.0000 0.0980
vn -0.9952 -0.0000 -0.0980
vn -0.9569 -0.0000 -0.2903
vn -0.8819 -0.0000 -0.4714
vn -0.7730 -0.0000 -0.6344
vn -0.6344 -0.0000 -0.7730
vn -0.4714 -0.0000 -0.8819
vn -0.0000 1.0000 -0.0000
vn -0.2903 -0.0000 -0.9569
vn -0.0980 -0.0000 -0.9952
vn -0.0000 -1.0000 -0.0000
vn -1.0000 -0.0000 -0.0000
vn -0.0000 -0.0000 -1.0000
vn 1.0000 -0.0000 -0.0000
vn -0.0000 -0.0000 1.0000
vn 0.4839 -0.8751 -0.0000
vn 0.4839 0.8751 -0.0000
vn 0.4078 -0.9131 -0.0000
vn 0.4079 0.9130 -0.0000
vn 0.0001 1.0000 -0.0000
vn 1.0000 0.0023 -0.0000
vn -1.0000 -0.0023 -0.0000
vn -0.4859 0.8740 -0.0000
vn 0.0023 -1.0000 -0.0000
vn -0.4819 -0.8763 -0.0000
vn -0.0023 1.0000 -0.0000
vt 1.258743 0.501500
vt 0.125424 -0.144333
vt 0.489662 0.250014
vt 1.217643 4.180352
vt 0.946392 1.557956
vt 0.102576 1.554528
vt 0.490338 0.750013
vt 1.211307 0.501269
vt 0.942870 -0.141012
vt 0.484987 0.203198
vt 0.920023 1.557849
vt 1.170206 4.180120
vt 0.485663 0.703198
vt 0.916501 -0.141119
vt 1.163871 0.501037
vt 0.471268 0.158195
vt 1.122770 4.179888
vt 0.893654 1.557742
vt 0.471945 0.658194
vt 0.890132 -0.141226
vt 0.449034 0.116732
vt 0.867285 1.557635
vt 1.075334 4.179656
vt 0.449711 0.616731
vt 0.863763 -0.141334
vt 1.068998 0.500573
vt 0.419138 0.080403
vt 1.027897 4.179425
vt 0.840915 1.557528
vt 0.419814 0.580403
vt 0.837394 -0.141441
vt 0.382729 0.050606
vt 0.814546 1.557420
vt 0.383405 0.550605
vt 0.811024 -0.141548
vt 0.341206 0.028483
vt 0.788177 1.557313
vt 0.341882 0.528483
vt 0.784655 -0.141655
vt 0.296165 0.014887
vt 0.761808 1.557206
vt 0.296842 0.514886
vt 0.758286 -0.141762
vt 0.249337 0.010339
vt 0.735439 1.557099
vt 0.250014 0.510338
vt 0.731917 -0.141869
vt 0.202522 0.015014
vt 0.709069 1.556992
vt 0.203198 0.515013
vt 0.705547 -0.141976
vt 0.157518 0.028732
vt 0.682700 1.556885
vt 0.158195 0.528732
vt 0.679178 -0.142083
vt 0.116055 0.050967
vt 0.656331 1.556778
vt 0.116732 0.550966
vt 0.652809 -0.142191
vt 0.079727 0.080863
vt 0.629961 1.556671
vt 0.080403 0.580862
vt 0.642071 0.498485
vt 0.626440 -0.142298
vt 0.049929 0.117272
vt 0.600970 4.177336
vt 0.603592 1.556563
vt 0.050606 0.617271
vt 0.594634 0.498253
vt 0.600070 -0.142405
vt 0.027807 0.158795
vt 0.577223 1.556456
vt 0.028483 0.658794
vt 0.573701 -0.142512
vt 0.014210 0.203836
vt 0.550854 1.556349
vt 0.014887 0.703835
vt 0.547332 -0.142619
vt 0.009662 0.250663
vt 0.524485 1.556242
vt 0.010339 0.750663
vt 0.520963 -0.142726
vt 0.014337 0.297479
vt 0.498115 1.556135
vt 0.015014 0.797478
vt 0.494593 -0.142833
vt 0.028055 0.342483
vt 0.471746 1.556028
vt 0.028732 0.842482
vt 0.468224 -0.142940
vt 0.050290 0.383945
vt 0.445377 1.555921
vt 0.050967 0.883945
vt 0.441855 -0.143047
vt 0.080186 0.420274
vt 0.419007 1.555814
vt 0.080863 0.920273
vt 0.415486 -0.143155
vt 0.116595 0.450072
vt 0.392638 1.555706
vt 0.117272 0.950071
vt 0.389116 -0.143262
vt 0.158118 0.472194
vt 0.366269 1.555599
vt 0.158795 0.972193
vt 0.362747 -0.143369
vt 0.203159 0.485790
vt 0.339900 1.555492
vt 0.203836 0.985790
vt 0.336378 -0.143476
vt 0.249987 0.490338
vt 0.313530 1.555385
vt 0.250663 0.990338
vt 0.310009 -0.143583
vt 0.296802 0.485663
vt 0.287161 1.555278
vt 0.297479 0.985663
vt 0.283639 -0.143690
vt 0.341806 0.471945
vt 0.260792 1.555171
vt 0.342483 0.971945
vt 0.257270 -0.143798
vt 0.383269 0.449711
vt 0.234423 1.555064
vt 0.383945 0.949710
vt 0.230901 -0.143904
vt 0.419597 0.419814
vt 0.208053 1.554956
vt 0.420274 0.919814
vt 0.204532 -0.144012
vt 0.449395 0.383405
vt 0.181684 1.554849
vt 0.450072 0.883405
vt 0.178162 -0.144119
vt 0.471517 0.341882
vt 0.155315 1.554742
vt 0.472194 0.841882
vt 0.151793 -0.144226
vt 0.485113 0.296842
vt 0.128946 1.554635
vt 0.485790 0.796841
vt 0.351117 -3.181991
vt -0.090025 2.334431
vt 0.063436 0.446036
vt 0.730608 -3.180135
vt 1.048448 2.339998
vt 0.063436 0.659249
vt -0.069475 0.495005
vt 0.330567 -1.342565
vt 1.068998 0.500573
vt 0.710057 -1.340709
vt 0.566834 0.845102
vt 0.289466 2.336287
vt 0.668957 2.338142
vt 0.578397 0.845194
vt 0.254536 0.674654
vt 0.310016 0.496861
vt 0.601069 0.519956
vt 0.689507 0.498717
vt 0.078010 0.272458
vt 0.219405 0.496418
vt 0.314923 0.057658
vt 0.424543 0.117760
vt 0.780119 0.499160
vt 0.694414 0.059514
vt 0.817175 0.437757
vt 0.198854 2.335843
vt 0.464305 0.708735
vt 0.759568 2.338585
vt 0.817175 0.650969
vt 0.674365 0.711709
vt 0.351117 -3.181991
vt -0.090025 2.334431
vt 0.026039 0.482170
vt 0.730608 -3.180135
vt 1.048448 2.339998
vt 0.026039 0.658420
vt -0.069475 0.495005
vt 0.611262 -0.934281
vt 0.330567 -1.342565
vt 0.710057 -1.340709
vt 1.068998 0.500573
vt 0.990753 -0.932425
vt 0.971798 0.533619
vt 0.289466 2.336287
vt 0.668957 2.338142
vt 0.969492 0.559863
vt 0.726422 0.979879
vt 0.310016 0.496861
vt 1.043752 0.771748
vt 0.689507 0.498717
vt 0.521379 0.662934
vt 0.232142 0.496480
vt 0.594929 0.527681
vt 0.838709 0.454803
vt 0.767381 0.499098
vt 0.974419 0.529537
vt 0.765181 0.482170
vt 0.211591 2.335906
vt 0.783266 0.425201
vt 0.746831 2.338523
vt 0.765182 0.658420
vt 0.783266 0.675201
vt 0.351117 -3.181991
vt -0.090025 2.334431
vt 0.812597 0.654120
vt 0.730608 -3.180135
vt 1.048448 2.339998
vt 0.818798 0.440997
vt -0.069475 0.495005
vt 0.330567 -1.342565
vt 1.068998 0.500573
vt 0.710057 -1.340709
vt 0.321019 0.240581
vt 0.289466 2.336287
vt 0.668957 2.338142
vt 0.309463 0.240153
vt 0.254536 0.674654
vt 0.310016 0.496861
vt 0.601069 0.519956
vt 0.689507 0.498717
vt 0.078010 0.272458
vt 0.219405 0.496418
vt 0.314923 0.057658
vt 0.424543 0.117760
vt 0.780119 0.499160
vt 0.694414 0.059514
vt 0.058936 0.640473
vt 0.198854 2.335843
vt 0.419538 0.379872
vt 0.759568 2.338585
vt 0.065137 0.427350
vt 0.209654 0.370790
s 0
usemtl bois
f 2/4/1 3/8/1 1/1/1
f 4/11/2 5/14/2 3/9/2
f 6/18/3 7/20/3 5/14/3
f 8/22/4 9/25/4 7/20/4
f 10/29/5 11/31/5 9/25/5
f 12/33/6 13/35/6 11/31/6
f 14/37/7 15/39/7 13/35/7
f 16/41/8 17/43/8 15/39/8
f 18/45/9 19/47/9 17/43/9
f 20/49/10 21/51/10 19/47/10
f 22/53/11 23/55/11 21/51/11
f 24/57/12 25/59/12 23/55/12
f 26/61/13 27/64/13 25/59/13
f 28/66/14 29/69/14 27/63/14
f 30/72/15 31/74/15 29/70/15
f 32/76/16 33/78/16 31/74/16
f 34/80/17 35/82/17 33/78/17
f 36/84/18 37/86/18 35/82/18
f 38/88/19 39/90/19 37/86/19
f 40/92/20 41/94/20 39/90/20
f 42/96/21 43/98/21 41/94/21
f 44/100/22 45/102/22 43/98/22
f 46/104/23 47/106/23 45/102/23
f 48/108/24 49/110/24 47/106/24
f 50/112/25 51/114/25 49/110/25
f 52/116/26 53/118/26 51/114/26
f 54/120/27 55/122/27 53/118/27
f 56/124/28 57/126/28 55/122/28
f 58/128/29 59/130/29 57/126/29
f 60/132/30 61/134/30 59/130/30
f 38/89/31 22/54/31 6/19/31
f 62/136/32 63/138/32 61/134/32
f 64/140/33 1/2/33 63/138/33
f 31/75/34 47/107/34 63/139/34
f 66/145/35 67/149/35 65/142/35
f 74/163/36 71/156/36 73/160/36
f 72/159/37 69/153/37 71/157/37
f 71/157/39 75/167/39 73/161/39
f 68/150/31 76/169/31 74/164/31
f 74/164/40 70/154/40 72/159/40
f 73/161/34 65/143/34 67/148/34
f 70/155/38 75/168/38 69/152/38
f 68/151/36 73/162/36 67/149/36
f 78/175/35 79/180/35 77/172/35
f 86/195/36 83/188/36 85/192/36
f 84/191/37 81/185/37 83/189/37
f 85/193/41 81/185/41 87/199/41
f 86/196/31 78/176/31 88/201/31
f 86/196/42 82/186/42 84/191/42
f 85/193/34 77/173/34 79/178/34
f 80/183/36 85/194/36 79/179/36
f 2/5/1 4/11/1 3/9/1
f 4/12/2 6/17/2 5/15/2
f 6/18/3 8/22/3 7/20/3
f 8/23/4 10/28/4 9/26/4
f 10/29/5 12/33/5 11/31/5
f 12/33/6 14/37/6 13/35/6
f 14/37/7 16/41/7 15/39/7
f 16/41/8 18/45/8 17/43/8
f 18/45/9 20/49/9 19/47/9
f 20/49/10 22/53/10 21/51/10
f 22/53/11 24/57/11 23/55/11
f 24/57/12 26/61/12 25/59/12
f 26/61/13 28/67/13 27/64/13
f 28/67/14 30/72/14 29/70/14
f 30/72/15 32/76/15 31/74/15
f 32/76/16 34/80/16 33/78/16
f 34/80/17 36/84/17 35/82/17
f 36/84/18 38/88/18 37/86/18
f 38/88/19 40/92/19 39/90/19
f 40/92/20 42/96/20 41/94/20
f 42/96/21 44/100/21 43/98/21
f 44/100/22 46/104/22 45/102/22
f 46/104/23 48/108/23 47/106/23
f 48/108/24 50/112/24 49/110/24
f 50/112/25 52/116/25 51/114/25
f 52/116/26 54/120/26 53/118/26
f 54/120/27 56/124/27 55/122/27
f 56/124/28 58/128/28 57/126/28
f 58/128/29 60/132/29 59/130/29
f 60/132/30 62/136/30 61/134/30
f 62/136/32 64/140/32 63/138/32
f 64/140/33 2/6/33 1/2/33
f 66/145/35 68/151/35 67/149/35
f 74/163/36 72/158/36 71/156/36
f 72/159/37 70/154/37 69/153/37
f 71/157/39 69/153/39 75/167/39
f 68/150/31 66/146/31 76/169/31
f 74/164/40 76/169/40 70/154/40
f 73/161/34 75/167/34 65/143/34
f 68/151/36 74/165/36 73/162/36
f 78/175/35 80/181/35 79/180/35
f 86/195/36 84/190/36 83/188/36
f 84/191/37 82/186/37 81/185/37
f 85/193/41 83/189/41 81/185/41
f 86/196/31 80/182/31 78/176/31
f 86/196/42 88/201/42 82/186/42
f 85/193/34 87/199/34 77/173/34
f 80/183/36 86/197/36 85/194/36
f 6/19/31 4/13/31 2/7/31
f 2/7/31 64/141/31 6/19/31
f 64/141/31 62/137/31 6/19/31
f 62/137/31 60/133/31 58/129/31
f 58/129/31 56/125/31 54/121/31
f 54/121/31 52/117/31 50/113/31
f 50/113/31 48/109/31 54/121/31
f 48/109/31 46/105/31 54/121/31
f 46/105/31 44/101/31 42/97/31
f 42/97/31 40/93/31 38/89/31
f 38/89/31 36/85/31 30/73/31
f 36/85/31 34/81/31 30/73/31
f 34/81/31 32/77/31 30/73/31
f 30/73/31 28/68/31 26/62/31
f 26/62/31 24/58/31 22/54/31
f 22/54/31 20/50/31 14/38/31
f 20/50/43 18/46/43 14/38/43
f 18/46/31 16/42/31 14/38/31
f 14/38/31 12/34/31 10/30/31
f 10/30/31 8/24/31 6/19/31
f 62/137/31 58/129/31 6/19/31
f 58/129/31 54/121/31 6/19/31
f 46/105/31 42/97/31 54/121/31
f 42/97/31 38/89/31 54/121/31
f 30/73/31 26/62/31 38/89/31
f 26/62/31 22/54/31 38/89/31
f 14/38/31 10/30/31 22/54/31
f 10/30/31 6/19/31 22/54/31
f 6/19/31 54/121/31 38/89/31
f 63/139/34 1/3/34 3/10/34
f 3/10/34 5/16/34 7/21/34
f 7/21/34 9/27/34 11/32/34
f 11/32/34 13/36/34 15/40/34
f 15/40/34 17/44/34 19/48/34
f 19/48/34 21/52/34 23/56/34
f 23/56/34 25/60/34 27/65/34
f 27/65/34 29/71/34 31/75/34
f 31/75/34 33/79/34 35/83/34
f 35/83/34 37/87/34 39/91/34
f 39/91/34 41/95/34 43/99/34
f 43/99/34 45/103/34 47/107/34
f 47/107/34 49/111/34 51/115/34
f 51/115/34 53/119/34 55/123/34
f 55/123/34 57/127/34 59/131/34
f 59/131/34 61/135/34 63/139/34
f 63/139/34 3/10/34 15/40/34
f 3/10/34 7/21/34 15/40/34
f 7/21/34 11/32/34 15/40/34
f 15/40/34 19/48/34 31/75/34
f 19/48/34 23/56/34 31/75/34
f 23/56/34 27/65/34 31/75/34
f 31/75/34 35/83/34 47/107/34
f 35/83/34 39/91/34 47/107/34
f 39/91/34 43/99/34 47/107/34
f 47/107/34 51/115/34 63/139/34
f 51/115/34 55/123/34 63/139/34
f 55/123/34 59/131/34 63/139/34
f 63/139/34 15/40/34 31/75/34
f 70/155/38 76/171/38 75/168/38
f 90/207/44 91/211/44 89/204/44
f 98/225/36 95/218/36 97/222/36
f 96/221/45 93/215/45 95/219/45
f 95/219/46 99/229/46 97/223/46
f 92/212/47 100/231/47 98/226/47
f 98/226/48 94/216/48 96/221/48
f 97/223/49 89/205/49 91/210/49
f 94/217/38 99/230/38 93/214/38
f 92/213/36 97/224/36 91/211/36
f 90/207/44 92/213/44 91/211/44
f 98/225/36 96/220/36 95/218/36
f 96/221/45 94/216/45 93/215/45
f 95/219/46 93/215/46 99/229/46
f 92/212/47 90/208/47 100/231/47
f 98/226/48 100/231/48 94/216/48
f 97/223/49 99/229/49 89/205/49
f 92/213/36 98/227/36 97/224/36
f 94/217/38 100/233/38 99/230/38
usemtl direction1
f 88/202/38 77/174/38 87/198/38
f 82/187/38 87/200/38 81/184/38
f 88/202/38 78/177/38 77/174/38
f 82/187/38 88/203/38 87/200/38
usemtl direction3
f 76/170/38 65/144/38 75/166/38
f 76/170/38 66/147/38 65/144/38
usemtl direction2
f 100/232/38 89/206/38 99/228/38
f 100/232/38 90/209/38 89/206/38
