# Blender 3.3.1
# www.blender.org
mtllib ./assets/models/sphere.mtl
o Sphere.003
v 0.000000 0.060534 -0.019669
v 0.000000 0.051493 -0.037412
v 0.000000 0.037412 -0.051493
v 0.000000 0.019669 -0.060534
v 0.000000 -0.037412 -0.051493
v 0.009141 0.060534 -0.017416
v 0.017386 0.051493 -0.033127
v 0.023930 0.037412 -0.045595
v 0.028132 0.019669 -0.053600
v 0.029579 0.000000 -0.056359
v 0.028132 -0.019669 -0.053600
v 0.023930 -0.037412 -0.045595
v 0.017386 -0.051493 -0.033127
v 0.009140 -0.060534 -0.017416
v 0.016187 0.060534 -0.011173
v 0.030790 0.051493 -0.021252
v 0.042378 0.037412 -0.029252
v 0.049819 0.019669 -0.034387
v 0.052382 0.000000 -0.036157
v 0.049819 -0.019669 -0.034387
v 0.042378 -0.037412 -0.029252
v 0.030790 -0.051493 -0.021252
v 0.016187 -0.060534 -0.011173
v 0.019525 0.060534 -0.002371
v 0.037139 0.051493 -0.004509
v 0.051118 0.037412 -0.006207
v 0.060093 0.019669 -0.007297
v 0.063185 0.000000 -0.007672
v 0.060093 -0.019669 -0.007297
v 0.051118 -0.037412 -0.006207
v 0.037139 -0.051493 -0.004509
v 0.019525 -0.060534 -0.002371
v 0.018391 0.060534 0.006975
v 0.034981 0.051493 0.013267
v 0.048147 0.037412 0.018260
v 0.056600 0.019669 0.021466
v 0.059513 -0.000000 0.022570
v 0.056600 -0.019669 0.021466
v 0.048147 -0.037412 0.018260
v 0.034981 -0.051493 0.013267
v 0.018391 -0.060534 0.006975
v 0.013043 0.060534 0.014722
v 0.024809 0.051493 0.028003
v 0.034146 0.037412 0.038543
v 0.040141 0.019669 0.045310
v 0.042207 -0.000000 0.047642
v 0.040141 -0.019669 0.045310
v 0.034146 -0.037412 0.038543
v 0.024809 -0.051493 0.028003
v 0.013043 -0.060534 0.014722
v 0.004707 0.060534 0.019097
v 0.008953 0.051493 0.036325
v 0.012323 0.037412 0.049997
v 0.014487 0.019669 0.058775
v 0.015232 -0.000000 0.061800
v 0.014487 -0.019669 0.058775
v 0.012323 -0.037412 0.049997
v 0.008953 -0.051493 0.036325
v 0.004707 -0.060534 0.019097
v -0.004707 0.060534 0.019097
v -0.008953 0.051493 0.036325
v -0.012323 0.037412 0.049997
v -0.014487 0.019669 0.058775
v -0.015232 -0.000000 0.061800
v -0.014487 -0.019669 0.058775
v -0.012323 -0.037412 0.049997
v -0.008953 -0.051493 0.036325
v -0.004707 -0.060534 0.019097
v -0.013043 0.060534 0.014722
v -0.024809 0.051493 0.028003
v -0.034146 0.037412 0.038543
v -0.040141 0.019669 0.045310
v -0.042207 -0.000000 0.047642
v -0.040141 -0.019669 0.045310
v -0.034146 -0.037412 0.038543
v -0.024809 -0.051493 0.028003
v -0.013043 -0.060534 0.014722
v 0.000000 -0.063649 -0.000000
v 0.000000 0.063649 0.000000
v -0.018391 0.060534 0.006975
v -0.034981 0.051493 0.013267
v -0.048147 0.037412 0.018260
v -0.056600 0.019669 0.021466
v -0.059513 -0.000000 0.022570
v -0.056600 -0.019669 0.021466
v -0.048147 -0.037412 0.018260
v -0.034981 -0.051493 0.013267
v -0.018391 -0.060534 0.006975
v -0.019525 0.060534 -0.002371
v -0.037139 0.051493 -0.004509
v -0.051118 0.037412 -0.006207
v -0.060093 0.019669 -0.007297
v -0.063185 0.000000 -0.007672
v -0.060093 -0.019669 -0.007297
v -0.051118 -0.037412 -0.006207
v -0.037139 -0.051493 -0.004509
v -0.019525 -0.060534 -0.002371
v -0.016187 0.060534 -0.011173
v -0.030790 0.051493 -0.021252
v -0.042378 0.037412 -0.029252
v -0.049819 0.019669 -0.034387
v -0.052382 0.000000 -0.036157
v -0.049819 -0.019669 -0.034387
v -0.042378 -0.037412 -0.029252
v -0.030790 -0.051493 -0.021252
v -0.016187 -0.060534 -0.011173
v -0.009141 0.060534 -0.017416
v -0.017386 0.051493 -0.033127
v -0.023930 0.037412 -0.045595
v -0.028132 0.019669 -0.053600
v -0.029579 0.000000 -0.056359
v -0.028132 -0.019669 -0.053600
v -0.023930 -0.037412 -0.045595
v -0.017386 -0.051493 -0.033127
v -0.009140 -0.060534 -0.017416
v 0.000000 0.000000 -0.063649
v 0.000000 -0.019669 -0.060534
v 0.000000 -0.051493 -0.037412
v 0.000000 -0.060534 -0.019669
vn -0.0000 -0.7977 -0.6031
vn 0.1536 -0.9438 -0.2926
vn -0.0000 -0.9438 -0.3304
vn -0.0000 -0.3022 -0.9532
vn 0.4647 -0.0000 -0.8855
vn 0.4430 -0.3022 -0.8440
vn -0.0000 0.7977 -0.6031
vn 0.3797 0.5767 -0.7234
vn -0.0000 0.5767 -0.8170
vn -0.0000 -1.0000 -0.0000
vn 0.3797 -0.5767 -0.7234
vn -0.0000 -0.5767 -0.8170
vn 0.4430 0.3022 -0.8440
vn -0.0000 0.3022 -0.9532
vn -0.0000 0.9438 -0.3304
vn -0.0000 1.0000 -0.0000
vn 0.1536 0.9438 -0.2926
vn 0.2803 -0.7977 -0.5340
vn -0.0000 -0.0000 -1.0000
vn 0.2803 0.7977 -0.5340
vn 0.8230 -0.0000 -0.5681
vn 0.7845 -0.3022 -0.5415
vn 0.6724 0.5767 -0.4641
vn 0.2719 -0.9438 -0.1877
vn 0.6724 -0.5767 -0.4641
vn 0.7845 0.3022 -0.5415
vn 0.2719 0.9438 -0.1877
vn 0.4963 -0.7977 -0.3426
vn 0.4963 0.7977 -0.3426
vn 0.3280 0.9438 -0.0398
vn 0.5987 0.7977 -0.0727
vn 0.3280 -0.9438 -0.0398
vn 0.9463 -0.3022 -0.1149
vn 0.8110 0.5767 -0.0985
vn 0.8110 -0.5767 -0.0985
vn 0.9463 0.3022 -0.1149
vn 0.5987 -0.7977 -0.0727
vn 0.9927 -0.0000 -0.1205
vn 0.5639 -0.7977 0.2138
vn 0.9350 -0.0000 0.3546
vn 0.5639 0.7977 0.2138
vn 0.3090 -0.9438 0.1172
vn 0.8913 -0.3022 0.3380
vn 0.7639 0.5767 0.2897
vn 0.7639 -0.5767 0.2897
vn 0.8913 0.3022 0.3380
vn 0.3090 0.9438 0.1172
vn 0.5418 0.5767 0.6115
vn 0.6321 0.3022 0.7135
vn 0.2191 0.9438 0.2473
vn 0.3999 -0.7977 0.4514
vn 0.6631 -0.0000 0.7485
vn 0.3999 0.7977 0.4514
vn 0.2191 -0.9438 0.2473
vn 0.6321 -0.3022 0.7135
vn 0.5418 -0.5767 0.6115
vn 0.1955 -0.5767 0.7932
vn 0.2281 0.3022 0.9255
vn 0.0791 0.9438 0.3208
vn 0.1443 -0.7977 0.5855
vn 0.2393 -0.0000 0.9709
vn 0.1443 0.7977 0.5855
vn 0.0791 -0.9438 0.3208
vn 0.2281 -0.3022 0.9255
vn 0.1955 0.5767 0.7932
vn -0.1443 0.7977 0.5855
vn -0.1955 0.5767 0.7932
vn -0.0791 -0.9438 0.3208
vn -0.1955 -0.5767 0.7932
vn -0.2281 0.3022 0.9255
vn -0.0791 0.9438 0.3208
vn -0.1443 -0.7977 0.5855
vn -0.2393 -0.0000 0.9709
vn -0.2281 -0.3022 0.9255
vn -0.2191 -0.9438 0.2473
vn -0.6631 -0.0000 0.7485
vn -0.6321 -0.3022 0.7135
vn -0.3999 0.7977 0.4514
vn -0.5418 0.5767 0.6115
vn -0.5418 -0.5767 0.6115
vn -0.6321 0.3022 0.7135
vn -0.2191 0.9438 0.2473
vn -0.3999 -0.7977 0.4514
vn -0.9350 -0.0000 0.3546
vn -0.5639 0.7977 0.2138
vn -0.3090 -0.9438 0.1172
vn -0.8913 -0.3022 0.3380
vn -0.7639 0.5767 0.2897
vn -0.7639 -0.5767 0.2897
vn -0.8913 0.3022 0.3380
vn -0.3090 0.9438 0.1172
vn -0.5639 -0.7977 0.2138
vn -0.3280 0.9438 -0.0398
vn -0.5987 -0.7977 -0.0727
vn -0.9927 -0.0000 -0.1205
vn -0.5987 0.7977 -0.0727
vn -0.3280 -0.9438 -0.0398
vn -0.9463 -0.3022 -0.1149
vn -0.8110 0.5767 -0.0985
vn -0.8110 -0.5767 -0.0985
vn -0.9463 0.3022 -0.1149
vn -0.7845 0.3022 -0.5415
vn -0.2719 0.9438 -0.1877
vn -0.4963 -0.7977 -0.3426
vn -0.8230 -0.0000 -0.5681
vn -0.4963 0.7977 -0.3426
vn -0.2719 -0.9438 -0.1877
vn -0.7845 -0.3022 -0.5415
vn -0.6724 0.5767 -0.4641
vn -0.6724 -0.5767 -0.4641
vn -0.1536 -0.9438 -0.2926
vn -0.3797 -0.5767 -0.7234
vn -0.4430 0.3022 -0.8440
vn -0.1536 0.9438 -0.2926
vn -0.2803 -0.7977 -0.5340
vn -0.4647 -0.0000 -0.8855
vn -0.2803 0.7977 -0.5340
vn -0.4430 -0.3022 -0.8440
vn -0.3797 0.5767 -0.7234
vt 0.692308 0.900000
vt 0.692308 0.800000
vt 0.692308 0.700000
vt 0.692308 0.600000
vt 0.692308 0.300000
vt 0.615384 0.900000
vt 0.615384 0.800000
vt 0.615384 0.700000
vt 0.615384 0.600000
vt 0.615384 0.500000
vt 0.615384 0.400000
vt 0.615384 0.300000
vt 0.615384 0.200000
vt 0.615384 0.100000
vt 0.538461 0.900000
vt 0.538461 0.800000
vt 0.538461 0.700000
vt 0.538461 0.600000
vt 0.538461 0.500000
vt 0.538461 0.400000
vt 0.538461 0.300000
vt 0.538461 0.200000
vt 0.538461 0.100000
vt 0.461538 0.900000
vt 0.461538 0.800000
vt 0.461538 0.700000
vt 0.461538 0.600000
vt 0.461538 0.500000
vt 0.461538 0.400000
vt 0.461538 0.300000
vt 0.461538 0.200000
vt 0.461538 0.100000
vt 0.384615 0.900000
vt 0.384615 0.800000
vt 0.384615 0.700000
vt 0.384615 0.600000
vt 0.384615 0.500000
vt 0.384615 0.400000
vt 0.384615 0.300000
vt 0.384615 0.200000
vt 0.384615 0.100000
vt 0.307692 0.900000
vt 0.307692 0.800000
vt 0.307692 0.700000
vt 0.307692 0.600000
vt 0.307692 0.500000
vt 0.307692 0.400000
vt 0.307692 0.300000
vt 0.307692 0.200000
vt 0.307692 0.100000
vt 0.230769 0.900000
vt 0.230769 0.800000
vt 0.230769 0.700000
vt 0.230769 0.600000
vt 0.230769 0.500000
vt 0.230769 0.400000
vt 0.230769 0.300000
vt 0.230769 0.200000
vt 0.230769 0.100000
vt 0.153846 0.900000
vt 0.153846 0.800000
vt 0.153846 0.700000
vt 0.153846 0.600000
vt 0.153846 0.500000
vt 0.153846 0.400000
vt 0.153846 0.300000
vt 0.153846 0.200000
vt 0.153846 0.100000
vt 0.076923 0.900000
vt 0.076923 0.800000
vt 0.076923 0.700000
vt 0.076923 0.600000
vt 0.076923 0.500000
vt 0.076923 0.400000
vt 0.076923 0.300000
vt 0.076923 0.200000
vt 0.076923 0.100000
vt 0.653846 0.000000
vt 0.576923 0.000000
vt 0.500000 0.000000
vt 0.423077 0.000000
vt 0.346154 0.000000
vt 0.269231 0.000000
vt 0.192308 0.000000
vt 0.115385 0.000000
vt 0.038462 0.000000
vt 0.961539 0.000000
vt 0.884616 0.000000
vt 0.807692 0.000000
vt 0.730769 0.000000
vt 0.653846 1.000000
vt 0.576923 1.000000
vt 0.500000 1.000000
vt 0.423077 1.000000
vt 0.346153 1.000000
vt 0.269231 1.000000
vt 0.192308 1.000000
vt 0.115385 1.000000
vt 0.038462 1.000000
vt 0.961539 1.000000
vt 0.884616 1.000000
vt 0.807693 1.000000
vt 0.730769 1.000000
vt 0.000000 0.900000
vt 1.000000 0.900000
vt 0.000000 0.800000
vt 1.000000 0.800000
vt 0.000000 0.700000
vt 1.000000 0.700000
vt 0.000000 0.600000
vt 1.000000 0.600000
vt 0.000000 0.500000
vt 1.000000 0.500000
vt 0.000000 0.400000
vt 1.000000 0.400000
vt 0.000000 0.300000
vt 1.000000 0.300000
vt 0.000000 0.200000
vt 1.000000 0.200000
vt 1.000000 0.100000
vt 0.000000 0.100000
vt 0.923077 0.900000
vt 0.923077 0.800000
vt 0.923077 0.700000
vt 0.923077 0.600000
vt 0.923077 0.500000
vt 0.923077 0.400000
vt 0.923077 0.300000
vt 0.923077 0.200000
vt 0.923077 0.100000
vt 0.846154 0.900000
vt 0.846154 0.800000
vt 0.846154 0.700000
vt 0.846154 0.600000
vt 0.846154 0.500000
vt 0.846154 0.400000
vt 0.846154 0.300000
vt 0.846154 0.200000
vt 0.846154 0.100000
vt 0.769231 0.900000
vt 0.769231 0.800000
vt 0.769231 0.700000
vt 0.769231 0.600000
vt 0.769231 0.500000
vt 0.769231 0.400000
vt 0.769231 0.300000
vt 0.769231 0.200000
vt 0.769231 0.100000
vt 0.692308 0.500000
vt 0.692308 0.400000
vt 0.692308 0.200000
vt 0.692308 0.100000
s 1
usemtl boid
f 118/151/1 14/14/2 119/152/3
f 117/150/4 10/10/5 11/11/6
f 2/2/7 8/8/8 3/3/9
f 78/78/10 119/152/3 14/14/2
f 117/150/4 12/12/11 5/5/12
f 3/3/9 9/9/13 4/4/14
f 1/1/15 79/91/16 6/6/17
f 5/5/12 13/13/18 118/151/1
f 4/4/14 10/10/5 116/149/19
f 1/1/15 7/7/20 2/2/7
f 11/11/6 19/19/21 20/20/22
f 7/7/20 17/17/23 8/8/8
f 78/79/10 14/14/2 23/23/24
f 11/11/6 21/21/25 12/12/11
f 9/9/13 17/17/23 18/18/26
f 6/6/17 79/92/16 15/15/27
f 12/12/11 22/22/28 13/13/18
f 10/10/5 18/18/26 19/19/21
f 6/6/17 16/16/29 7/7/20
f 13/13/18 23/23/24 14/14/2
f 16/16/29 24/24/30 25/25/31
f 22/22/28 32/32/32 23/23/24
f 19/19/21 29/29/33 20/20/22
f 17/17/23 25/25/31 26/26/34
f 78/80/10 23/23/24 32/32/32
f 20/20/22 30/30/35 21/21/25
f 17/17/23 27/27/36 18/18/26
f 15/15/27 79/93/16 24/24/30
f 21/21/25 31/31/37 22/22/28
f 19/19/21 27/27/36 28/28/38
f 30/30/35 40/40/39 31/31/37
f 27/27/36 37/37/40 28/28/38
f 24/24/30 34/34/41 25/25/31
f 31/31/37 41/41/42 32/32/32
f 28/28/38 38/38/43 29/29/33
f 26/26/34 34/34/41 35/35/44
f 78/81/10 32/32/32 41/41/42
f 29/29/33 39/39/45 30/30/35
f 26/26/34 36/36/46 27/27/36
f 24/24/30 79/94/16 33/33/47
f 36/36/46 44/44/48 45/45/49
f 33/33/47 79/95/16 42/42/50
f 39/39/45 49/49/51 40/40/39
f 36/36/46 46/46/52 37/37/40
f 33/33/47 43/43/53 34/34/41
f 40/40/39 50/50/54 41/41/42
f 38/38/43 46/46/52 47/47/55
f 34/34/41 44/44/48 35/35/44
f 78/82/10 41/41/42 50/50/54
f 38/38/43 48/48/56 39/39/45
f 47/47/55 57/57/57 48/48/56
f 44/44/48 54/54/58 45/45/49
f 42/42/50 79/96/16 51/51/59
f 48/48/56 58/58/60 49/49/51
f 45/45/49 55/55/61 46/46/52
f 43/43/53 51/51/59 52/52/62
f 49/49/51 59/59/63 50/50/54
f 47/47/55 55/55/61 56/56/64
f 43/43/53 53/53/65 44/44/48
f 78/83/10 50/50/54 59/59/63
f 53/53/65 61/61/66 62/62/67
f 78/84/10 59/59/63 68/68/68
f 56/56/64 66/66/69 57/57/57
f 53/53/65 63/63/70 54/54/58
f 51/51/59 79/97/16 60/60/71
f 57/57/57 67/67/72 58/58/60
f 54/54/58 64/64/73 55/55/61
f 51/51/59 61/61/66 52/52/62
f 58/58/60 68/68/68 59/59/63
f 56/56/64 64/64/73 65/65/74
f 67/67/72 77/77/75 68/68/68
f 65/65/74 73/73/76 74/74/77
f 62/62/67 70/70/78 71/71/79
f 78/85/10 68/68/68 77/77/75
f 65/65/74 75/75/80 66/66/69
f 62/62/67 72/72/81 63/63/70
f 60/60/71 79/98/16 69/69/82
f 66/66/69 76/76/83 67/67/72
f 63/63/70 73/73/76 64/64/73
f 60/60/71 70/70/78 61/61/66
f 72/72/81 84/112/84 73/73/76
f 69/69/82 81/106/85 70/70/78
f 76/76/83 88/121/86 77/77/75
f 73/73/76 85/114/87 74/74/77
f 70/70/78 82/108/88 71/71/79
f 78/86/10 77/77/75 88/121/86
f 75/75/80 85/114/87 86/116/89
f 71/71/79 83/110/90 72/72/81
f 69/69/82 79/99/16 80/104/91
f 75/75/80 87/118/92 76/76/83
f 80/105/91 79/100/16 89/122/93
f 86/117/89 96/129/94 87/119/92
f 83/111/90 93/126/95 84/113/84
f 80/105/91 90/123/96 81/107/85
f 87/119/92 97/130/97 88/120/86
f 85/115/87 93/126/95 94/127/98
f 82/109/88 90/123/96 91/124/99
f 78/87/10 88/120/86 97/130/97
f 86/117/89 94/127/98 95/128/100
f 82/109/88 92/125/101 83/111/90
f 91/124/99 101/134/102 92/125/101
f 89/122/93 79/101/16 98/131/103
f 95/128/100 105/138/104 96/129/94
f 92/125/101 102/135/105 93/126/95
f 89/122/93 99/132/106 90/123/96
f 96/129/94 106/139/107 97/130/97
f 93/126/95 103/136/108 94/127/98
f 91/124/99 99/132/106 100/133/109
f 78/88/10 97/130/97 106/139/107
f 94/127/98 104/137/110 95/128/100
f 78/89/10 106/139/107 115/148/111
f 103/136/108 113/146/112 104/137/110
f 100/133/109 110/143/113 101/134/102
f 98/131/103 79/102/16 107/140/114
f 104/137/110 114/147/115 105/138/104
f 101/134/102 111/144/116 102/135/105
f 98/131/103 108/141/117 99/132/106
f 105/138/104 115/148/111 106/139/107
f 102/135/105 112/145/118 103/136/108
f 100/133/109 108/141/117 109/142/119
f 112/145/118 116/149/19 117/150/4
f 109/142/119 2/2/7 3/3/9
f 78/90/10 115/148/111 119/152/3
f 112/145/118 5/5/12 113/146/112
f 110/143/113 3/3/9 4/4/14
f 107/140/114 79/103/16 1/1/15
f 113/146/112 118/151/1 114/147/115
f 110/143/113 116/149/19 111/144/116
f 107/140/114 2/2/7 108/141/117
f 115/148/111 118/151/1 119/152/3
f 118/151/1 13/13/18 14/14/2
f 117/150/4 116/149/19 10/10/5
f 2/2/7 7/7/20 8/8/8
f 117/150/4 11/11/6 12/12/11
f 3/3/9 8/8/8 9/9/13
f 5/5/12 12/12/11 13/13/18
f 4/4/14 9/9/13 10/10/5
f 1/1/15 6/6/17 7/7/20
f 11/11/6 10/10/5 19/19/21
f 7/7/20 16/16/29 17/17/23
f 11/11/6 20/20/22 21/21/25
f 9/9/13 8/8/8 17/17/23
f 12/12/11 21/21/25 22/22/28
f 10/10/5 9/9/13 18/18/26
f 6/6/17 15/15/27 16/16/29
f 13/13/18 22/22/28 23/23/24
f 16/16/29 15/15/27 24/24/30
f 22/22/28 31/31/37 32/32/32
f 19/19/21 28/28/38 29/29/33
f 17/17/23 16/16/29 25/25/31
f 20/20/22 29/29/33 30/30/35
f 17/17/23 26/26/34 27/27/36
f 21/21/25 30/30/35 31/31/37
f 19/19/21 18/18/26 27/27/36
f 30/30/35 39/39/45 40/40/39
f 27/27/36 36/36/46 37/37/40
f 24/24/30 33/33/47 34/34/41
f 31/31/37 40/40/39 41/41/42
f 28/28/38 37/37/40 38/38/43
f 26/26/34 25/25/31 34/34/41
f 29/29/33 38/38/43 39/39/45
f 26/26/34 35/35/44 36/36/46
f 36/36/46 35/35/44 44/44/48
f 39/39/45 48/48/56 49/49/51
f 36/36/46 45/45/49 46/46/52
f 33/33/47 42/42/50 43/43/53
f 40/40/39 49/49/51 50/50/54
f 38/38/43 37/37/40 46/46/52
f 34/34/41 43/43/53 44/44/48
f 38/38/43 47/47/55 48/48/56
f 47/47/55 56/56/64 57/57/57
f 44/44/48 53/53/65 54/54/58
f 48/48/56 57/57/57 58/58/60
f 45/45/49 54/54/58 55/55/61
f 43/43/53 42/42/50 51/51/59
f 49/49/51 58/58/60 59/59/63
f 47/47/55 46/46/52 55/55/61
f 43/43/53 52/52/62 53/53/65
f 53/53/65 52/52/62 61/61/66
f 56/56/64 65/65/74 66/66/69
f 53/53/65 62/62/67 63/63/70
f 57/57/57 66/66/69 67/67/72
f 54/54/58 63/63/70 64/64/73
f 51/51/59 60/60/71 61/61/66
f 58/58/60 67/67/72 68/68/68
f 56/56/64 55/55/61 64/64/73
f 67/67/72 76/76/83 77/77/75
f 65/65/74 64/64/73 73/73/76
f 62/62/67 61/61/66 70/70/78
f 65/65/74 74/74/77 75/75/80
f 62/62/67 71/71/79 72/72/81
f 66/66/69 75/75/80 76/76/83
f 63/63/70 72/72/81 73/73/76
f 60/60/71 69/69/82 70/70/78
f 72/72/81 83/110/90 84/112/84
f 69/69/82 80/104/91 81/106/85
f 76/76/83 87/118/92 88/121/86
f 73/73/76 84/112/84 85/114/87
f 70/70/78 81/106/85 82/108/88
f 75/75/80 74/74/77 85/114/87
f 71/71/79 82/108/88 83/110/90
f 75/75/80 86/116/89 87/118/92
f 86/117/89 95/128/100 96/129/94
f 83/111/90 92/125/101 93/126/95
f 80/105/91 89/122/93 90/123/96
f 87/119/92 96/129/94 97/130/97
f 85/115/87 84/113/84 93/126/95
f 82/109/88 81/107/85 90/123/96
f 86/117/89 85/115/87 94/127/98
f 82/109/88 91/124/99 92/125/101
f 91/124/99 100/133/109 101/134/102
f 95/128/100 104/137/110 105/138/104
f 92/125/101 101/134/102 102/135/105
f 89/122/93 98/131/103 99/132/106
f 96/129/94 105/138/104 106/139/107
f 93/126/95 102/135/105 103/136/108
f 91/124/99 90/123/96 99/132/106
f 94/127/98 103/136/108 104/137/110
f 103/136/108 112/145/118 113/146/112
f 100/133/109 109/142/119 110/143/113
f 104/137/110 113/146/112 114/147/115
f 101/134/102 110/143/113 111/144/116
f 98/131/103 107/140/114 108/141/117
f 105/138/104 114/147/115 115/148/111
f 102/135/105 111/144/116 112/145/118
f 100/133/109 99/132/106 108/141/117
f 112/145/118 111/144/116 116/149/19
f 109/142/119 108/141/117 2/2/7
f 112/145/118 117/150/4 5/5/12
f 110/143/113 109/142/119 3/3/9
f 113/146/112 5/5/12 118/151/1
f 110/143/113 4/4/14 116/149/19
f 107/140/114 1/1/15 2/2/7
f 115/148/111 114/147/115 118/151/1
