# Blender 3.3.1
# www.blender.org
mtllib ./assets/models/sphere.mtl
o Sphere.004
v 0.000000 0.047214 -0.047214
v 0.000000 0.017282 -0.064495
v 0.000000 -0.017282 -0.064495
v 0.000000 -0.033385 -0.057825
v 0.008641 0.064495 -0.014966
v 0.016693 0.057825 -0.028913
v 0.023607 0.047214 -0.040888
v 0.028913 0.033385 -0.050078
v 0.032248 0.017282 -0.055855
v 0.033385 0.000000 -0.057825
v 0.032248 -0.017282 -0.055855
v 0.028913 -0.033385 -0.050078
v 0.023607 -0.047214 -0.040888
v 0.016693 -0.057825 -0.028913
v 0.008641 -0.064495 -0.014966
v 0.014966 0.064495 -0.008641
v 0.028913 0.057825 -0.016693
v 0.040888 0.047214 -0.023607
v 0.050078 0.033385 -0.028913
v 0.055855 0.017282 -0.032248
v 0.057825 0.000000 -0.033385
v 0.055855 -0.017282 -0.032248
v 0.050078 -0.033385 -0.028913
v 0.040888 -0.047214 -0.023607
v 0.028913 -0.057825 -0.016693
v 0.014966 -0.064495 -0.008641
v 0.017282 0.064495 0.000000
v 0.033385 0.057825 0.000000
v 0.047214 0.047214 0.000000
v 0.057825 0.033385 0.000000
v 0.064495 0.017282 0.000000
v 0.066771 0.000000 0.000000
v 0.064495 -0.017282 0.000000
v 0.057825 -0.033385 0.000000
v 0.047214 -0.047214 0.000000
v 0.033385 -0.057825 0.000000
v 0.017282 -0.064495 0.000000
v 0.014966 0.064495 0.008641
v 0.028913 0.057825 0.016693
v 0.040888 0.047214 0.023607
v 0.050078 0.033385 0.028913
v 0.055855 0.017282 0.032248
v 0.057825 0.000000 0.033385
v 0.055855 -0.017282 0.032248
v 0.050078 -0.033385 0.028913
v 0.040888 -0.047214 0.023607
v 0.028913 -0.057825 0.016693
v 0.014966 -0.064495 0.008641
v 0.008641 0.064495 0.014966
v 0.016693 0.057825 0.028913
v 0.023607 0.047214 0.040888
v 0.028913 0.033385 0.050078
v 0.032248 0.017282 0.055855
v 0.033385 0.000000 0.057825
v 0.032248 -0.017282 0.055855
v 0.028913 -0.033385 0.050078
v 0.023607 -0.047214 0.040888
v 0.016693 -0.057825 0.028913
v 0.008641 -0.064495 0.014966
v 0.000000 0.064495 0.017282
v 0.000000 0.057825 0.033385
v -0.000000 0.047214 0.047214
v -0.000000 0.033385 0.057825
v -0.000000 0.017282 0.064495
v 0.000000 0.000000 0.066771
v -0.000000 -0.017282 0.064495
v -0.000000 -0.033385 0.057825
v -0.000000 -0.047214 0.047214
v 0.000000 -0.057825 0.033385
v 0.000000 -0.064495 0.017282
v -0.008641 0.064495 0.014966
v -0.016693 0.057825 0.028913
v -0.023607 0.047214 0.040888
v -0.028913 0.033385 0.050078
v -0.032248 0.017282 0.055855
v -0.033385 0.000000 0.057825
v -0.032248 -0.017282 0.055855
v -0.028913 -0.033385 0.050078
v -0.023607 -0.047214 0.040888
v -0.016693 -0.057825 0.028913
v -0.008641 -0.064495 0.014966
v -0.014966 0.064495 0.008641
v -0.028913 0.057825 0.016693
v -0.040888 0.047214 0.023607
v -0.050078 0.033385 0.028913
v -0.055855 0.017282 0.032248
v -0.057825 0.000000 0.033385
v -0.055855 -0.017282 0.032248
v -0.050078 -0.033385 0.028913
v -0.040888 -0.047214 0.023607
v -0.028913 -0.057825 0.016693
v -0.014966 -0.064495 0.008641
v 0.000000 0.066771 0.000000
v -0.017282 0.064495 0.000000
v -0.033385 0.057825 0.000000
v -0.047214 0.047214 -0.000000
v -0.057825 0.033385 -0.000000
v -0.064495 0.017282 -0.000000
v -0.066771 0.000000 0.000000
v -0.064495 -0.017282 -0.000000
v -0.057825 -0.033385 -0.000000
v -0.047214 -0.047214 -0.000000
v -0.033385 -0.057825 0.000000
v -0.017282 -0.064495 0.000000
v -0.014966 0.064495 -0.008641
v -0.028913 0.057825 -0.016693
v -0.040888 0.047214 -0.023607
v -0.050078 0.033385 -0.028913
v -0.055855 0.017282 -0.032248
v -0.057825 0.000000 -0.033385
v -0.055855 -0.017282 -0.032248
v -0.050078 -0.033385 -0.028913
v -0.040888 -0.047214 -0.023607
v -0.028913 -0.057825 -0.016693
v -0.014966 -0.064495 -0.008641
v -0.008641 0.064495 -0.014966
v -0.016693 0.057825 -0.028913
v -0.023607 0.047214 -0.040888
v -0.028913 0.033385 -0.050078
v -0.032248 0.017282 -0.055855
v -0.033385 0.000000 -0.057825
v -0.032248 -0.017282 -0.055855
v -0.028913 -0.033385 -0.050078
v -0.023607 -0.047214 -0.040888
v -0.016693 -0.057825 -0.028913
v -0.008641 -0.064495 -0.014966
v 0.000000 0.064495 -0.017282
v 0.000000 0.057825 -0.033385
v 0.000000 0.033385 -0.057825
v 0.000000 0.000000 -0.066771
v 0.000000 -0.047214 -0.047214
v 0.000000 -0.057825 -0.033385
v 0.000000 -0.064495 -0.017282
v 0.000000 -0.066771 0.000000
vn 0.2568 -0.1262 -0.9582
vn 0.2079 0.5955 -0.7760
vn 0.1020 -0.9191 -0.3807
vn 0.0350 0.9908 -0.1304
vn 0.2403 -0.3715 -0.8968
vn 0.2403 0.3715 -0.8968
vn 0.0350 -0.9908 -0.1304
vn 0.1020 0.9191 -0.3807
vn 0.2079 -0.5955 -0.7760
vn 0.2568 0.1262 -0.9582
vn 0.1610 0.7830 -0.6008
vn 0.1610 -0.7830 -0.6008
vn 0.0955 -0.9908 -0.0955
vn 0.2787 0.9191 -0.2787
vn 0.5681 -0.5955 -0.5681
vn 0.7015 0.1262 -0.7015
vn 0.4398 0.7830 -0.4398
vn 0.4398 -0.7830 -0.4398
vn 0.7015 -0.1262 -0.7015
vn 0.5681 0.5955 -0.5681
vn 0.2787 -0.9191 -0.2787
vn 0.0955 0.9908 -0.0955
vn 0.6565 -0.3715 -0.6565
vn 0.6565 0.3715 -0.6565
vn 0.7760 0.5955 -0.2079
vn 0.3807 -0.9191 -0.1020
vn 0.1304 0.9908 -0.0350
vn 0.8968 -0.3715 -0.2403
vn 0.8968 0.3715 -0.2403
vn 0.1304 -0.9908 -0.0350
vn 0.3807 0.9191 -0.1020
vn 0.7760 -0.5955 -0.2079
vn 0.9582 0.1262 -0.2568
vn 0.6008 0.7830 -0.1610
vn 0.6008 -0.7830 -0.1610
vn 0.9582 -0.1262 -0.2568
vn 0.6008 0.7830 0.1610
vn 0.6008 -0.7830 0.1610
vn 0.9582 -0.1262 0.2568
vn 0.7760 0.5955 0.2079
vn 0.3807 -0.9191 0.1020
vn 0.1304 0.9908 0.0350
vn 0.8968 -0.3715 0.2403
vn 0.8968 0.3715 0.2403
vn 0.1304 -0.9908 0.0350
vn 0.3807 0.9191 0.1020
vn 0.7760 -0.5955 0.2079
vn 0.9582 0.1262 0.2568
vn 0.6565 0.3715 0.6565
vn 0.0955 -0.9908 0.0955
vn 0.2787 0.9191 0.2787
vn 0.5681 -0.5955 0.5681
vn 0.7015 0.1262 0.7015
vn 0.4398 0.7830 0.4398
vn 0.4398 -0.7830 0.4398
vn 0.7015 -0.1262 0.7015
vn 0.5681 0.5955 0.5681
vn 0.2787 -0.9191 0.2787
vn 0.0955 0.9908 0.0955
vn 0.6565 -0.3715 0.6565
vn 0.2079 0.5955 0.7760
vn 0.1020 -0.9191 0.3807
vn 0.0350 0.9908 0.1304
vn 0.2403 -0.3715 0.8968
vn 0.2403 0.3715 0.8968
vn 0.0350 -0.9908 0.1304
vn 0.1020 0.9191 0.3807
vn 0.2079 -0.5955 0.7760
vn 0.2568 0.1262 0.9582
vn 0.1610 0.7830 0.6008
vn 0.1610 -0.7830 0.6008
vn 0.2568 -0.1262 0.9582
vn -0.2568 0.1262 0.9582
vn -0.1610 0.7830 0.6008
vn -0.1610 -0.7830 0.6008
vn -0.2568 -0.1262 0.9582
vn -0.2079 0.5955 0.7760
vn -0.1020 -0.9191 0.3807
vn -0.0350 0.9908 0.1304
vn -0.2403 -0.3715 0.8968
vn -0.2403 0.3715 0.8968
vn -0.0350 -0.9908 0.1304
vn -0.1020 0.9191 0.3807
vn -0.2079 -0.5955 0.7760
vn -0.6565 0.3715 0.6565
vn -0.0955 -0.9908 0.0955
vn -0.2787 0.9191 0.2787
vn -0.5681 -0.5955 0.5681
vn -0.7015 0.1262 0.7015
vn -0.4398 0.7830 0.4398
vn -0.4398 -0.7830 0.4398
vn -0.7015 -0.1262 0.7015
vn -0.5681 0.5955 0.5681
vn -0.2787 -0.9191 0.2787
vn -0.0955 0.9908 0.0955
vn -0.6565 -0.3715 0.6565
vn -0.9582 -0.1262 0.2568
vn -0.7760 0.5955 0.2079
vn -0.3807 -0.9191 0.1020
vn -0.1304 0.9908 0.0350
vn -0.8968 -0.3715 0.2403
vn -0.8968 0.3715 0.2403
vn -0.1304 -0.9908 0.0350
vn -0.3807 0.9191 0.1020
vn -0.7760 -0.5955 0.2079
vn -0.9582 0.1262 0.2568
vn -0.6008 0.7830 0.1610
vn -0.6008 -0.7830 0.1610
vn -0.9582 0.1262 -0.2568
vn -0.6008 0.7830 -0.1610
vn -0.6008 -0.7830 -0.1610
vn -0.9582 -0.1262 -0.2568
vn -0.7760 0.5955 -0.2079
vn -0.3807 -0.9191 -0.1020
vn -0.1304 0.9908 -0.0350
vn -0.8968 -0.3715 -0.2403
vn -0.8968 0.3715 -0.2403
vn -0.1304 -0.9908 -0.0350
vn -0.3807 0.9191 -0.1020
vn -0.7760 -0.5955 -0.2079
vn -0.6565 -0.3715 -0.6565
vn -0.6565 0.3715 -0.6565
vn -0.0955 -0.9908 -0.0955
vn -0.2787 0.9191 -0.2787
vn -0.5681 -0.5955 -0.5681
vn -0.7015 0.1262 -0.7015
vn -0.4398 0.7830 -0.4398
vn -0.4398 -0.7830 -0.4398
vn -0.7015 -0.1262 -0.7015
vn -0.5681 0.5955 -0.5681
vn -0.2787 -0.9191 -0.2787
vn -0.0955 0.9908 -0.0955
vn -0.2568 -0.1262 -0.9582
vn -0.2079 0.5955 -0.7760
vn -0.1020 -0.9191 -0.3807
vn -0.0350 0.9908 -0.1304
vn -0.2403 -0.3715 -0.8968
vn -0.2403 0.3715 -0.8968
vn -0.0350 -0.9908 -0.1304
vn -0.1020 0.9191 -0.3807
vn -0.2079 -0.5955 -0.7760
vn -0.2568 0.1262 -0.9582
vn -0.1610 0.7830 -0.6008
vn -0.1610 -0.7830 -0.6008
vt 0.750000 0.750000
vt 0.750000 0.583333
vt 0.750000 0.416667
vt 0.750000 0.333333
vt 0.666667 0.916667
vt 0.666667 0.833333
vt 0.666667 0.750000
vt 0.666667 0.666667
vt 0.666667 0.583333
vt 0.666667 0.500000
vt 0.666667 0.416667
vt 0.666667 0.333333
vt 0.666667 0.250000
vt 0.666667 0.166667
vt 0.666667 0.083333
vt 0.583333 0.916667
vt 0.583333 0.833333
vt 0.583333 0.750000
vt 0.583333 0.666667
vt 0.583333 0.583333
vt 0.583333 0.500000
vt 0.583333 0.416667
vt 0.583333 0.333333
vt 0.583333 0.250000
vt 0.583333 0.166667
vt 0.583333 0.083333
vt 0.500000 0.916667
vt 0.500000 0.833333
vt 0.500000 0.750000
vt 0.500000 0.666667
vt 0.500000 0.583333
vt 0.500000 0.500000
vt 0.500000 0.416667
vt 0.500000 0.333333
vt 0.500000 0.250000
vt 0.500000 0.166667
vt 0.500000 0.083333
vt 0.416667 0.916667
vt 0.416667 0.833333
vt 0.416667 0.750000
vt 0.416667 0.666667
vt 0.416667 0.583333
vt 0.416667 0.500000
vt 0.416667 0.416667
vt 0.416667 0.333333
vt 0.416667 0.250000
vt 0.416667 0.166667
vt 0.416667 0.083333
vt 0.333333 0.916667
vt 0.333333 0.833333
vt 0.333333 0.750000
vt 0.333333 0.666667
vt 0.333333 0.583333
vt 0.333333 0.500000
vt 0.333333 0.416667
vt 0.333333 0.333333
vt 0.333333 0.250000
vt 0.333333 0.166667
vt 0.333333 0.083333
vt 0.250000 0.916667
vt 0.250000 0.833333
vt 0.250000 0.750000
vt 0.250000 0.666667
vt 0.250000 0.583333
vt 0.250000 0.500000
vt 0.250000 0.416667
vt 0.250000 0.333333
vt 0.250000 0.250000
vt 0.250000 0.166667
vt 0.250000 0.083333
vt 0.166667 0.916667
vt 0.166667 0.833333
vt 0.166667 0.750000
vt 0.166667 0.666667
vt 0.166667 0.583333
vt 0.166667 0.500000
vt 0.166667 0.416667
vt 0.166667 0.333333
vt 0.166667 0.250000
vt 0.166667 0.166667
vt 0.166667 0.083333
vt 0.083333 0.916667
vt 0.083333 0.833333
vt 0.083333 0.750000
vt 0.083333 0.666667
vt 0.083333 0.583333
vt 0.083333 0.500000
vt 0.083333 0.416667
vt 0.083333 0.333333
vt 0.083333 0.250000
vt 0.083333 0.166667
vt 0.083333 0.083333
vt 0.708333 1.000000
vt 0.625000 1.000000
vt 0.541667 1.000000
vt 0.458333 1.000000
vt 0.375000 1.000000
vt 0.291667 1.000000
vt 0.208333 1.000000
vt 0.125000 1.000000
vt 0.041667 1.000000
vt 0.958333 1.000000
vt 0.875000 1.000000
vt 0.791667 1.000000
vt 0.000000 0.916667
vt 1.000000 0.916667
vt 0.000000 0.833333
vt 1.000000 0.833333
vt 0.000000 0.750000
vt 1.000000 0.750000
vt 0.000000 0.666667
vt 1.000000 0.666667
vt 0.000000 0.583333
vt 1.000000 0.583333
vt 0.000000 0.500000
vt 1.000000 0.500000
vt 0.000000 0.416667
vt 1.000000 0.416667
vt 0.000000 0.333333
vt 1.000000 0.333333
vt 0.000000 0.250000
vt 1.000000 0.250000
vt 0.000000 0.166667
vt 1.000000 0.166667
vt 0.000000 0.083333
vt 1.000000 0.083333
vt 0.916667 0.916667
vt 0.916667 0.833333
vt 0.916667 0.750000
vt 0.916667 0.666667
vt 0.916667 0.583333
vt 0.916667 0.500000
vt 0.916667 0.416667
vt 0.916667 0.333333
vt 0.916667 0.250000
vt 0.916667 0.166667
vt 0.916667 0.083333
vt 0.833333 0.916667
vt 0.833333 0.833333
vt 0.833333 0.750000
vt 0.833333 0.666667
vt 0.833333 0.583333
vt 0.833333 0.500000
vt 0.833333 0.416667
vt 0.833333 0.333333
vt 0.833333 0.250000
vt 0.833333 0.166667
vt 0.833333 0.083333
vt 0.750000 0.916667
vt 0.750000 0.833333
vt 0.750000 0.666667
vt 0.750000 0.500000
vt 0.750000 0.250000
vt 0.750000 0.166667
vt 0.750000 0.083333
vt 0.708333 0.000000
vt 0.625000 0.000000
vt 0.541667 0.000000
vt 0.458333 0.000000
vt 0.375000 0.000000
vt 0.291667 0.000000
vt 0.208333 0.000000
vt 0.125000 0.000000
vt 0.041667 0.000000
vt 0.958333 0.000000
vt 0.875000 0.000000
vt 0.791667 0.000000
s 1
usemtl boid
f 3/3/1 10/10/1 11/11/1
f 129/151/2 7/7/2 8/8/2
f 132/154/3 15/15/3 133/155/3
f 127/149/4 93/93/4 5/5/4
f 3/3/5 12/12/5 4/4/5
f 129/151/6 9/9/6 2/2/6
f 134/156/7 133/155/7 15/15/7
f 127/149/8 6/6/8 128/150/8
f 131/153/9 12/12/9 13/13/9
f 130/152/10 9/9/10 10/10/10
f 128/150/11 7/7/11 1/1/11
f 131/153/12 14/14/12 132/154/12
f 134/157/13 15/15/13 26/26/13
f 5/5/14 17/17/14 6/6/14
f 13/13/15 23/23/15 24/24/15
f 9/9/16 21/21/16 10/10/16
f 6/6/17 18/18/17 7/7/17
f 13/13/18 25/25/18 14/14/18
f 10/10/19 22/22/19 11/11/19
f 7/7/20 19/19/20 8/8/20
f 15/15/21 25/25/21 26/26/21
f 5/5/22 93/94/22 16/16/22
f 11/11/23 23/23/23 12/12/23
f 8/8/24 20/20/24 9/9/24
f 18/18/25 30/30/25 19/19/25
f 26/26/26 36/36/26 37/37/26
f 16/16/27 93/95/27 27/27/27
f 22/22/28 34/34/28 23/23/28
f 20/20/29 30/30/29 31/31/29
f 134/158/30 26/26/30 37/37/30
f 17/17/31 27/27/31 28/28/31
f 24/24/32 34/34/32 35/35/32
f 20/20/33 32/32/33 21/21/33
f 18/18/34 28/28/34 29/29/34
f 24/24/35 36/36/35 25/25/35
f 22/22/36 32/32/36 33/33/36
f 29/29/37 39/39/37 40/40/37
f 35/35/38 47/47/38 36/36/38
f 33/33/39 43/43/39 44/44/39
f 29/29/40 41/41/40 30/30/40
f 36/36/41 48/48/41 37/37/41
f 27/27/42 93/96/42 38/38/42
f 33/33/43 45/45/43 34/34/43
f 31/31/44 41/41/44 42/42/44
f 134/159/45 37/37/45 48/48/45
f 27/27/46 39/39/46 28/28/46
f 34/34/47 46/46/47 35/35/47
f 31/31/48 43/43/48 32/32/48
f 41/41/49 53/53/49 42/42/49
f 134/160/50 48/48/50 59/59/50
f 38/38/51 50/50/51 39/39/51
f 45/45/52 57/57/52 46/46/52
f 42/42/53 54/54/53 43/43/53
f 39/39/54 51/51/54 40/40/54
f 46/46/55 58/58/55 47/47/55
f 44/44/56 54/54/56 55/55/56
f 40/40/57 52/52/57 41/41/57
f 48/48/58 58/58/58 59/59/58
f 38/38/59 93/97/59 49/49/59
f 44/44/60 56/56/60 45/45/60
f 51/51/61 63/63/61 52/52/61
f 59/59/62 69/69/62 70/70/62
f 49/49/63 93/98/63 60/60/63
f 55/55/64 67/67/64 56/56/64
f 52/52/65 64/64/65 53/53/65
f 134/161/66 59/59/66 70/70/66
f 50/50/67 60/60/67 61/61/67
f 56/56/68 68/68/68 57/57/68
f 53/53/69 65/65/69 54/54/69
f 51/51/70 61/61/70 62/62/70
f 57/57/71 69/69/71 58/58/71
f 55/55/72 65/65/72 66/66/72
f 64/64/73 76/76/73 65/65/73
f 62/62/74 72/72/74 73/73/74
f 68/68/75 80/80/75 69/69/75
f 66/66/76 76/76/76 77/77/76
f 63/63/77 73/73/77 74/74/77
f 69/69/78 81/81/78 70/70/78
f 60/60/79 93/99/79 71/71/79
f 67/67/80 77/77/80 78/78/80
f 64/64/81 74/74/81 75/75/81
f 134/162/82 70/70/82 81/81/82
f 60/60/83 72/72/83 61/61/83
f 67/67/84 79/79/84 68/68/84
f 74/74/85 86/86/85 75/75/85
f 134/163/86 81/81/86 92/92/86
f 71/71/87 83/83/87 72/72/87
f 78/78/88 90/90/88 79/79/88
f 75/75/89 87/87/89 76/76/89
f 72/72/90 84/84/90 73/73/90
f 79/79/91 91/91/91 80/80/91
f 77/77/92 87/87/92 88/88/92
f 73/73/93 85/85/93 74/74/93
f 81/81/94 91/91/94 92/92/94
f 71/71/95 93/100/95 82/82/95
f 78/78/96 88/88/96 89/89/96
f 88/88/97 99/115/97 100/117/97
f 84/84/98 97/111/98 85/85/98
f 92/92/99 103/123/99 104/125/99
f 82/82/100 93/101/100 94/105/100
f 88/88/101 101/119/101 89/89/101
f 85/85/102 98/113/102 86/86/102
f 134/164/103 92/92/103 104/125/103
f 83/83/104 94/105/104 95/107/104
f 90/90/105 101/119/105 102/121/105
f 86/86/106 99/115/106 87/87/106
f 84/84/107 95/107/107 96/109/107
f 90/90/108 103/123/108 91/91/108
f 98/114/109 110/132/109 99/116/109
f 96/110/110 106/128/110 107/129/110
f 102/122/111 114/136/111 103/124/111
f 100/118/112 110/132/112 111/133/112
f 96/110/113 108/130/113 97/112/113
f 103/124/114 115/137/114 104/126/114
f 94/106/115 93/102/115 105/127/115
f 100/118/116 112/134/116 101/120/116
f 97/112/117 109/131/117 98/114/117
f 134/165/118 104/126/118 115/137/118
f 94/106/119 106/128/119 95/108/119
f 102/122/120 112/134/120 113/135/120
f 111/133/121 123/145/121 112/134/121
f 108/130/122 120/142/122 109/131/122
f 134/166/123 115/137/123 126/148/123
f 105/127/124 117/139/124 106/128/124
f 112/134/125 124/146/125 113/135/125
f 109/131/126 121/143/126 110/132/126
f 106/128/127 118/140/127 107/129/127
f 113/135/128 125/147/128 114/136/128
f 111/133/129 121/143/129 122/144/129
f 107/129/130 119/141/130 108/130/130
f 115/137/131 125/147/131 126/148/131
f 105/127/132 93/103/132 116/138/132
f 122/144/133 130/152/133 3/3/133
f 118/140/134 129/151/134 119/141/134
f 126/148/135 132/154/135 133/155/135
f 116/138/136 93/104/136 127/149/136
f 122/144/137 4/4/137 123/145/137
f 120/142/138 129/151/138 2/2/138
f 134/167/139 126/148/139 133/155/139
f 117/139/140 127/149/140 128/150/140
f 124/146/141 4/4/141 131/153/141
f 120/142/142 130/152/142 121/143/142
f 118/140/143 128/150/143 1/1/143
f 124/146/144 132/154/144 125/147/144
f 3/3/1 130/152/1 10/10/1
f 129/151/2 1/1/2 7/7/2
f 132/154/3 14/14/3 15/15/3
f 3/3/5 11/11/5 12/12/5
f 129/151/6 8/8/6 9/9/6
f 127/149/8 5/5/8 6/6/8
f 131/153/9 4/4/9 12/12/9
f 130/152/10 2/2/10 9/9/10
f 128/150/11 6/6/11 7/7/11
f 131/153/12 13/13/12 14/14/12
f 5/5/14 16/16/14 17/17/14
f 13/13/15 12/12/15 23/23/15
f 9/9/16 20/20/16 21/21/16
f 6/6/17 17/17/17 18/18/17
f 13/13/18 24/24/18 25/25/18
f 10/10/19 21/21/19 22/22/19
f 7/7/20 18/18/20 19/19/20
f 15/15/21 14/14/21 25/25/21
f 11/11/23 22/22/23 23/23/23
f 8/8/24 19/19/24 20/20/24
f 18/18/25 29/29/25 30/30/25
f 26/26/26 25/25/26 36/36/26
f 22/22/28 33/33/28 34/34/28
f 20/20/29 19/19/29 30/30/29
f 17/17/31 16/16/31 27/27/31
f 24/24/32 23/23/32 34/34/32
f 20/20/33 31/31/33 32/32/33
f 18/18/34 17/17/34 28/28/34
f 24/24/35 35/35/35 36/36/35
f 22/22/36 21/21/36 32/32/36
f 29/29/37 28/28/37 39/39/37
f 35/35/38 46/46/38 47/47/38
f 33/33/39 32/32/39 43/43/39
f 29/29/40 40/40/40 41/41/40
f 36/36/41 47/47/41 48/48/41
f 33/33/43 44/44/43 45/45/43
f 31/31/44 30/30/44 41/41/44
f 27/27/46 38/38/46 39/39/46
f 34/34/47 45/45/47 46/46/47
f 31/31/48 42/42/48 43/43/48
f 41/41/49 52/52/49 53/53/49
f 38/38/51 49/49/51 50/50/51
f 45/45/52 56/56/52 57/57/52
f 42/42/53 53/53/53 54/54/53
f 39/39/54 50/50/54 51/51/54
f 46/46/55 57/57/55 58/58/55
f 44/44/56 43/43/56 54/54/56
f 40/40/57 51/51/57 52/52/57
f 48/48/58 47/47/58 58/58/58
f 44/44/60 55/55/60 56/56/60
f 51/51/61 62/62/61 63/63/61
f 59/59/62 58/58/62 69/69/62
f 55/55/64 66/66/64 67/67/64
f 52/52/65 63/63/65 64/64/65
f 50/50/67 49/49/67 60/60/67
f 56/56/68 67/67/68 68/68/68
f 53/53/69 64/64/69 65/65/69
f 51/51/70 50/50/70 61/61/70
f 57/57/71 68/68/71 69/69/71
f 55/55/72 54/54/72 65/65/72
f 64/64/73 75/75/73 76/76/73
f 62/62/74 61/61/74 72/72/74
f 68/68/75 79/79/75 80/80/75
f 66/66/76 65/65/76 76/76/76
f 63/63/77 62/62/77 73/73/77
f 69/69/78 80/80/78 81/81/78
f 67/67/80 66/66/80 77/77/80
f 64/64/81 63/63/81 74/74/81
f 60/60/83 71/71/83 72/72/83
f 67/67/84 78/78/84 79/79/84
f 74/74/85 85/85/85 86/86/85
f 71/71/87 82/82/87 83/83/87
f 78/78/88 89/89/88 90/90/88
f 75/75/89 86/86/89 87/87/89
f 72/72/90 83/83/90 84/84/90
f 79/79/91 90/90/91 91/91/91
f 77/77/92 76/76/92 87/87/92
f 73/73/93 84/84/93 85/85/93
f 81/81/94 80/80/94 91/91/94
f 78/78/96 77/77/96 88/88/96
f 88/88/97 87/87/97 99/115/97
f 84/84/98 96/109/98 97/111/98
f 92/92/99 91/91/99 103/123/99
f 88/88/101 100/117/101 101/119/101
f 85/85/102 97/111/102 98/113/102
f 83/83/104 82/82/104 94/105/104
f 90/90/105 89/89/105 101/119/105
f 86/86/106 98/113/106 99/115/106
f 84/84/107 83/83/107 95/107/107
f 90/90/108 102/121/108 103/123/108
f 98/114/109 109/131/109 110/132/109
f 96/110/110 95/108/110 106/128/110
f 102/122/111 113/135/111 114/136/111
f 100/118/112 99/116/112 110/132/112
f 96/110/113 107/129/113 108/130/113
f 103/124/114 114/136/114 115/137/114
f 100/118/116 111/133/116 112/134/116
f 97/112/117 108/130/117 109/131/117
f 94/106/119 105/127/119 106/128/119
f 102/122/120 101/120/120 112/134/120
f 111/133/121 122/144/121 123/145/121
f 108/130/122 119/141/122 120/142/122
f 105/127/124 116/138/124 117/139/124
f 112/134/125 123/145/125 124/146/125
f 109/131/126 120/142/126 121/143/126
f 106/128/127 117/139/127 118/140/127
f 113/135/128 124/146/128 125/147/128
f 111/133/129 110/132/129 121/143/129
f 107/129/130 118/140/130 119/141/130
f 115/137/131 114/136/131 125/147/131
f 122/144/133 121/143/133 130/152/133
f 118/140/134 1/1/134 129/151/134
f 126/148/135 125/147/135 132/154/135
f 122/144/137 3/3/137 4/4/137
f 120/142/138 119/141/138 129/151/138
f 117/139/140 116/138/140 127/149/140
f 124/146/141 123/145/141 4/4/141
f 120/142/142 2/2/142 130/152/142
f 118/140/143 117/139/143 128/150/143
f 124/146/144 131/153/144 132/154/144
